<?xml version="1.0" encoding="utf-8"?>
<!-- Generator: Adobe Illustrator 17.1.0, SVG Export Plug-In . SVG Version: 6.00 Build 0)  -->
<!DOCTYPE svg PUBLIC "-//W3C//DTD SVG 1.1//EN" "http://www.w3.org/Graphics/SVG/1.1/DTD/svg11.dtd">
<svg version="1.1" id="Layer_1" xmlns="http://www.w3.org/2000/svg" xmlns:xlink="http://www.w3.org/1999/xlink" x="0px" y="0px"
	 viewBox="0 0 100 100" enable-background="new 0 0 100 100" xml:space="preserve">
<path fill="#FFFFFF" d="M49.983,65.833h-0.029c-0.787,0-1.425-0.638-1.425-1.425V35.592c0-0.787,0.638-1.425,1.425-1.425h0.029
	c0.787,0,1.425,0.638,1.425,1.425v28.817C51.408,65.195,50.77,65.833,49.983,65.833z"/>
<path fill="#FFFFFF" d="M34.135,50.014v-0.029c0-0.787,0.638-1.425,1.425-1.425h28.817c0.787,0,1.425,0.638,1.425,1.425v0.029
	c0,0.787-0.638,1.425-1.425,1.425l-28.817,0C34.773,51.439,34.135,50.801,34.135,50.014z"/>
</svg>
